<svg xmlns="http://www.w3.org/2000/svg" width="28" height="28" viewBox="0 0 28 28">
  <g id="Icon_ionic-ios-arrow-dropleft" data-name="Icon ionic-ios-arrow-dropleft" transform="translate(-3.375 -3.375)">
    <path id="Path_1215" data-name="Path 1215" d="M17.216,10.2a.763.763,0,0,0-1.075,0l-3.757,3.769a.759.759,0,0,0-.024,1.048l3.7,3.714a.759.759,0,1,0,1.075-1.071l-3.143-3.19,3.226-3.194A.76.76,0,0,0,17.216,10.2Z" transform="translate(1.469 2.9)" fill="#fff"/>
    <path id="Path_1216" data-name="Path 1216" d="M17.375,3.375a14,14,0,1,0,14,14A14,14,0,0,0,17.375,3.375Zm8.373,22.373A11.841,11.841,0,1,1,9,9,11.841,11.841,0,1,1,25.748,25.748Z" transform="translate(0 0)" fill="#fff"/>
  </g>
</svg>
