<svg id="Icon_ionic-ios-mail" data-name="Icon ionic-ios-mail" xmlns="http://www.w3.org/2000/svg" width="26.361" height="18.25" viewBox="0 0 26.361 18.25">
  <path id="Path_964" data-name="Path 964" d="M29.521,10.353,22.7,17.3a.123.123,0,0,0,0,.177l4.772,5.082a.822.822,0,0,1,0,1.166.826.826,0,0,1-1.166,0L21.555,18.66a.13.13,0,0,0-.184,0l-1.16,1.179a5.1,5.1,0,0,1-3.637,1.534,5.2,5.2,0,0,1-3.713-1.578L11.746,18.66a.13.13,0,0,0-.184,0L6.81,23.723a.826.826,0,0,1-1.166,0,.822.822,0,0,1,0-1.166l4.772-5.082a.135.135,0,0,0,0-.177L3.59,10.353a.125.125,0,0,0-.215.089v13.9A2.034,2.034,0,0,0,5.4,26.366H27.708a2.034,2.034,0,0,0,2.028-2.028v-13.9A.127.127,0,0,0,29.521,10.353Z" transform="translate(-3.375 -8.116)" fill="#e4e4e4"/>
  <path id="Path_965" data-name="Path 965" d="M16.64,19.478a3.445,3.445,0,0,0,2.478-1.039L29.06,8.319a1.992,1.992,0,0,0-1.255-.444H5.48a1.978,1.978,0,0,0-1.255.444l9.942,10.12A3.445,3.445,0,0,0,16.64,19.478Z" transform="translate(-3.459 -7.875)" fill="#e4e4e4"/>
</svg>
