<svg id="Group_20755" data-name="Group 20755" xmlns="http://www.w3.org/2000/svg" xmlns:xlink="http://www.w3.org/1999/xlink" width="184.783" height="172.74" viewBox="0 0 184.783 172.74">
  <defs>
    <linearGradient id="linear-gradient" x1="0.775" y1="-0.138" x2="0.212" y2="1.022" gradientUnits="objectBoundingBox">
      <stop offset="0" stop-color="#8e4b19"/>
      <stop offset="0.075" stop-color="#dd9740"/>
      <stop offset="0.172" stop-color="#faebcb"/>
      <stop offset="0.183" stop-color="#f4d395"/>
      <stop offset="0.202" stop-color="#eaad3d"/>
      <stop offset="0.204" stop-color="#e8ab3c"/>
      <stop offset="0.278" stop-color="#9a4721"/>
      <stop offset="0.385" stop-color="#dd9740"/>
      <stop offset="0.457" stop-color="#ebd6a9"/>
      <stop offset="0.497" stop-color="#eebd62"/>
      <stop offset="0.5" stop-color="#eab55b"/>
      <stop offset="0.51" stop-color="#e19f47"/>
      <stop offset="0.516" stop-color="#dd9740"/>
      <stop offset="0.559" stop-color="#834016"/>
      <stop offset="0.63" stop-color="#97541d"/>
      <stop offset="0.687" stop-color="#c37934"/>
      <stop offset="0.751" stop-color="#e7b36e"/>
      <stop offset="0.814" stop-color="#b46c2a"/>
      <stop offset="0.832" stop-color="#9f5921"/>
      <stop offset="0.851" stop-color="#914d1b"/>
      <stop offset="0.867" stop-color="#8c4919"/>
      <stop offset="0.957" stop-color="#a75b29"/>
    </linearGradient>
    <linearGradient id="linear-gradient-2" x1="-0.001" y1="0.499" x2="1" y2="0.499" gradientUnits="objectBoundingBox">
      <stop offset="0" stop-color="#803916"/>
      <stop offset="0.027" stop-color="#9a4721"/>
      <stop offset="0.161" stop-color="#dd9740"/>
      <stop offset="0.195" stop-color="#e7b36e"/>
      <stop offset="0.229" stop-color="#efcb96"/>
      <stop offset="0.26" stop-color="#f5ddb3"/>
      <stop offset="0.287" stop-color="#f9e7c5"/>
      <stop offset="0.306" stop-color="#faebcb"/>
      <stop offset="0.336" stop-color="#f7e0b1"/>
      <stop offset="0.398" stop-color="#f1ca7f"/>
      <stop offset="0.453" stop-color="#edba5b"/>
      <stop offset="0.498" stop-color="#ebb145"/>
      <stop offset="0.526" stop-color="#eaad3d"/>
      <stop offset="0.758" stop-color="#a75b29"/>
      <stop offset="0.876" stop-color="#b46c2a"/>
      <stop offset="0.957" stop-color="#642806"/>
      <stop offset="0.989" stop-color="#7d3d16"/>
    </linearGradient>
  </defs>
  <g id="Group_20753" data-name="Group 20753" transform="translate(1.425 153.964)">
    <path id="Path_1108" data-name="Path 1108" d="M253.7,190.229l-36.257-17.222-.647-.906,36.128,17.222Z" transform="translate(-216.8 -172.1)" fill="gray"/>
  </g>
  <path id="Path_1109" data-name="Path 1109" d="M399.447,70.681l.388-.388L363.707,53.2a5.982,5.982,0,0,1-.906.906l-.259.259c-.388.259-.647.518-1.036.777a4.309,4.309,0,0,1-1.295.777c-.129,0-.129.129-.259.129-.388.129-.647.388-1.036.518-.259.129-.388.129-.647.259-.13,0-.259.129-.388.129-.259.129-.518.129-.777.259a.452.452,0,0,0-.259.129c-.388.129-.777.129-1.165.259h-.259c-.259,0-.647.129-.906.129-.518,0-1.036.129-1.554.129h-1.942c-.518,0-1.036-.129-1.554-.129h-.388a4.6,4.6,0,0,1-1.295-.259h-.388c-.906-.129-1.813-.388-2.719-.518s-1.813-.388-2.719-.518h-.388c-.388-.129-.906-.129-1.295-.259h-.388a6.841,6.841,0,0,0-1.683-.129h-2.072a7.965,7.965,0,0,0-1.683.129h0c-.388,0-.777.13-1.165.13h-.259a2.4,2.4,0,0,0-.906.259c-.13,0-.259.129-.389.129-.259.129-.518.129-.777.259-.13,0-.259.129-.518.129-.13.129-.388.129-.518.259a.127.127,0,0,0-.129.129,7.687,7.687,0,0,0-1.036.518c-.129,0-.129.129-.259.129a7.855,7.855,0,0,0-1.295.906h-.129c-.389.259-.648.518-1.036.777l-.259.259c-.259.129-.388.388-.647.647l-.388.388c-.388.388-.777.906-1.165,1.295h0a.127.127,0,0,1-.13.129,7.859,7.859,0,0,0-.906,1.295l-.129.129c-.13.129-.13.259-.259.388-.259.388-.388.647-.647,1.036,0,.129-.13.129-.13.259s-.129.129-.129.259c-.259.388-.388.906-.647,1.295,0,.129-.13.129-.13.259v.129a.779.779,0,0,0-.129.518c-.13.259-.13.518-.259.777,0,.259-.13.388-.13.647,0,.129-.129.388-.129.518v.129c-.13.388-.13.777-.259,1.165a.476.476,0,0,1-.13.388c-.129.518-.129,1.036-.259,1.554v.259c0,.388-.13.906-.13,1.295v7.251c0,.518.13,1.036.13,1.554s.129,1.036.129,1.554v7.122a5.312,5.312,0,0,1-.129,1.424v.13c0,.518-.13,1.036-.13,1.424a.979.979,0,0,1-.129.518,3.048,3.048,0,0,1-.259,1.036,5.609,5.609,0,0,1-.129.647c0,.13-.129.388-.129.518-.13.259-.13.518-.259.777,0,.13-.129.388-.129.518s-.129.259-.129.389c-.13.388-.388.777-.518,1.165-.13.129-.13.388-.259.518-.129.259-.388.647-.518.906-.129.129-.129.259-.259.518a7.118,7.118,0,0,1-.906,1.165l-.129.129a8.388,8.388,0,0,1-1.036,1.165,5.984,5.984,0,0,1-.906.906l-.259.259c-.388.259-.647.518-1.036.777a4.308,4.308,0,0,1-1.295.777c-.13,0-.13.129-.259.129-.388.13-.647.388-1.036.518-.259.13-.388.13-.647.259-.129,0-.259.13-.388.13-.259.129-.518.129-.777.259a.452.452,0,0,0-.259.129c-.388.13-.777.13-1.165.259h-.259c-.259,0-.647.129-.906.129-.518,0-1.036.129-1.554.129h-1.942c-.518,0-1.036-.129-1.554-.129h-.388a4.6,4.6,0,0,1-1.295-.259h-.259c-.906-.13-1.813-.388-2.719-.518s-1.813-.388-2.719-.518h-.388c-.388-.13-.906-.13-1.295-.259h-.388a6.839,6.839,0,0,0-1.683-.13H286.79a7.964,7.964,0,0,0-1.683.13h0c-.388,0-.777.129-1.165.129h-.259a2.4,2.4,0,0,0-.906.259c-.13,0-.259.129-.389.129-.259.129-.518.129-.777.259-.129,0-.259.129-.518.129-.129.129-.388.129-.518.259a.127.127,0,0,0-.129.13,7.7,7.7,0,0,0-1.036.518c-.13,0-.13.13-.259.13a7.862,7.862,0,0,0-1.295.906h-.129c-.388.259-.647.518-1.036.777l-.259.259c-.259.129-.388.388-.647.518l-.388.388c-.388.389-.777.906-1.165,1.295h0a.127.127,0,0,1-.13.13,7.861,7.861,0,0,0-.906,1.295l-.129.129c-.129.129-.129.259-.259.389-.259.388-.388.647-.647,1.036,0,.129-.129.129-.129.259s-.129.13-.129.259c-.259.388-.388.906-.647,1.295,0,.13-.129.13-.129.259v.129a.779.779,0,0,0-.13.518c-.129.259-.129.518-.259.777,0,.259-.129.388-.129.647,0,.129-.13.388-.13.518v.129c-.13.388-.13.777-.259,1.165a.476.476,0,0,1-.129.388c-.13.518-.13,1.036-.259,1.554v.259c0,.388-.129.906-.129,1.295V134c0,.518.129,1.036.129,1.554a6.3,6.3,0,0,0,.129,1.554V144.1a5.312,5.312,0,0,1-.129,1.424h0c0,.518-.129,1.036-.129,1.424a.979.979,0,0,1-.13.518,3.047,3.047,0,0,1-.259,1.036,5.608,5.608,0,0,1-.129.647c0,.13-.13.389-.13.518-.13.259-.13.518-.259.777,0,.13-.129.388-.129.518s-.129.259-.129.388c-.13.388-.389.777-.518,1.165-.13.13-.13.259-.259.518s-.388.647-.518.906c-.13.13-.13.259-.259.518a7.11,7.11,0,0,1-.906,1.165l-.129.129a8.376,8.376,0,0,1-1.036,1.165,5.981,5.981,0,0,1-.906.906l-.259.259c-.388.259-.647.518-1.036.777a4.31,4.31,0,0,1-1.295.777c-.129,0-.129.129-.259.129-.389.13-.647.388-1.036.518-.259.13-.388.13-.647.259-.13,0-.259.13-.388.13-.259.13-.518.13-.777.259a.452.452,0,0,0-.259.13c-.388.13-.777.13-1.165.259h-.259c-.259,0-.647.129-.906.129-.518,0-1.036.13-1.554.13h-1.942c-.518,0-1.036-.13-1.554-.13h-.388a4.6,4.6,0,0,1-1.295-.259h-.259c-.906-.13-1.813-.388-2.59-.518-.906-.13-1.813-.388-2.719-.518h-.389c-.388-.13-.906-.13-1.295-.259h-.388a6.842,6.842,0,0,0-1.683-.129h-2.072a7.965,7.965,0,0,0-1.683.129h0c-.388,0-.777.13-1.165.13h-.259a2.4,2.4,0,0,0-.906.259c-.13,0-.259.129-.388.129-.259.13-.518.13-.777.259-.13,0-.259.129-.518.129-.129.13-.388.13-.518.259a.127.127,0,0,0-.13.13,7.691,7.691,0,0,0-1.036.518c-.13,0-.13.13-.259.13a7.857,7.857,0,0,0-1.295.906h-.13c-.388.259-.647.518-1.036.777l-.259.259c-.259.13-.388.388-.647.518l-.388.388c-.389.388-.777.906-1.165,1.295h0a.127.127,0,0,1-.13.13,7.862,7.862,0,0,0-.906,1.295l-.129.13c-.13.13-.13.259-.259.388-.259.388-.388.647-.647,1.036,0,.13-.129.13-.129.259s-.13.129-.13.259c-.259.388-.388.906-.647,1.295,0,.13-.13.13-.13.259v.129a.778.778,0,0,0-.13.518c-.129.259-.129.518-.259.777,0,.259-.13.388-.13.647,0,.129-.129.389-.129.518v.13c-.129.388-.129.777-.259,1.165a.476.476,0,0,1-.129.388c-.13.518-.13,1.036-.259,1.554v.259c0,.388-.129.906-.129,1.295v7.251c0,.518.129,1.036.129,1.554s.13,1.036.13,1.554V195.9a5.312,5.312,0,0,1-.13,1.424v.129c0,.518-.129,1.036-.129,1.424a.978.978,0,0,1-.13.518,3.048,3.048,0,0,1-.259,1.036,5.607,5.607,0,0,1-.13.647c0,.13-.129.389-.129.518-.13.259-.13.518-.259.777,0,.13-.13.388-.13.518s-.13.259-.13.388c-.129.389-.388.777-.518,1.165-.13.13-.13.388-.259.518-.13.259-.389.647-.518.906-.129.13-.129.259-.259.518a7.113,7.113,0,0,1-.906,1.165l-.129.129a8.375,8.375,0,0,1-1.036,1.165l36.128,17.093a8.377,8.377,0,0,0,1.036-1.165h0a.127.127,0,0,1,.13-.129c.259-.388.647-.777.906-1.165l.129-.13a.476.476,0,0,0,.13-.388c.13-.259.388-.647.518-.906,0-.13.129-.13.129-.259s.129-.13.129-.259a4.6,4.6,0,0,0,.518-1.165c0-.13.13-.13.13-.259v-.13c0-.13.129-.388.129-.518.129-.259.129-.518.259-.777,0-.13.129-.388.129-.518s.13-.388.13-.518v-.259c.129-.388.129-.647.259-1.036a.476.476,0,0,1,.129-.388,5.806,5.806,0,0,0,.13-1.424v-.129c0-.518.129-.906.129-1.424V206a6.3,6.3,0,0,0-.129-1.554c0-.518-.13-1.036-.13-1.554v-7.251a4.4,4.4,0,0,1,.13-1.295v-.259a6.5,6.5,0,0,1,.259-1.554.476.476,0,0,1,.13-.388c.13-.388.13-.777.259-1.165,0-.259.13-.518.13-.777s.129-.388.129-.647c.129-.259.129-.518.259-.777,0-.13.129-.388.129-.518s.13-.259.13-.388a6.939,6.939,0,0,1,.647-1.424c.129-.13.129-.388.259-.518a4.544,4.544,0,0,1,.647-1.036.982.982,0,0,0,.259-.518c.259-.389.647-.906.906-1.295a.127.127,0,0,1,.13-.129c.388-.389.777-.906,1.165-1.295l1.036-1.036.259-.259a7.4,7.4,0,0,0,1.036-.906,7.86,7.86,0,0,1,1.295-.906c.13,0,.13-.129.259-.129a7.631,7.631,0,0,1,1.036-.518c.259-.13.388-.259.647-.259.129-.129.259-.129.518-.129.259-.13.518-.13.777-.259.13,0,.259-.13.388-.13.259-.129.647-.129.907-.259h.259a3.585,3.585,0,0,1,1.165-.129c.518,0,1.036-.129,1.683-.129h2.072c.518,0,1.036.129,1.683.129h.388c.388.129.906.129,1.295.259h.259c.906.129,1.813.388,2.719.518s1.813.388,2.59.518h.388c.388.129.906.129,1.295.259h.388a6.305,6.305,0,0,0,1.554.129h1.942a6.305,6.305,0,0,0,1.554-.129h0c.259,0,.518-.13.777-.13h.259c.388-.129.777-.129,1.165-.259a.452.452,0,0,0,.259-.129c.259-.13.518-.13.777-.259.129,0,.259-.13.388-.13.129-.13.388-.13.518-.259h.13c.388-.13.647-.388,1.036-.518.13,0,.13-.129.259-.129a11.379,11.379,0,0,1,1.295-.777h0c.259-.259.647-.518.906-.777l.259-.259.518-.518.388-.388a8.38,8.38,0,0,0,1.036-1.165h0a.127.127,0,0,1,.13-.129c.259-.388.647-.777.906-1.165a.127.127,0,0,1,.129-.129.476.476,0,0,0,.129-.389c.13-.259.389-.647.518-.906,0-.129.13-.129.13-.259s.129-.13.129-.259a4.6,4.6,0,0,0,.518-1.165c0-.13.129-.13.129-.259V167.8c0-.13.13-.388.13-.518.129-.259.129-.518.259-.777,0-.129.129-.388.129-.518s.13-.388.13-.518v-.259c.129-.388.129-.647.259-1.036a.476.476,0,0,1,.129-.388,5.806,5.806,0,0,0,.13-1.424h0c0-.518.129-.906.129-1.424v-6.992a6.306,6.306,0,0,0-.129-1.554c0-.518-.13-1.036-.13-1.554v-7.251a4.4,4.4,0,0,1,.13-1.295v-.259a6.5,6.5,0,0,1,.259-1.554.476.476,0,0,1,.129-.388c.129-.388.129-.777.259-1.165,0-.259.129-.518.129-.777s.13-.388.13-.647c.13-.259.13-.518.259-.777,0-.13.129-.388.129-.518s.129-.259.129-.388a4.051,4.051,0,0,1,.647-1.295c.129-.129.129-.388.259-.518a4.541,4.541,0,0,1,.647-1.036.982.982,0,0,0,.259-.518c.259-.388.647-.906.906-1.295a.127.127,0,0,1,.129-.129c.388-.388.777-.906,1.165-1.295l1.036-1.036.259-.259a7.4,7.4,0,0,0,1.036-.906,7.86,7.86,0,0,1,1.295-.906c.129,0,.129-.129.259-.129a7.638,7.638,0,0,1,1.036-.518c.259-.129.388-.259.647-.259.129-.13.259-.13.518-.13.259-.129.518-.129.777-.259.13,0,.259-.129.388-.129.259-.129.647-.129.906-.259h.259a3.586,3.586,0,0,1,1.165-.129c.518,0,1.036-.13,1.683-.13h2.072c.518,0,1.036.13,1.683.13h.388c.388.129.906.129,1.295.259h.259c.906.129,1.813.388,2.719.518s1.813.388,2.719.518h.388c.388.13.906.13,1.295.259h.388a6.305,6.305,0,0,0,1.554.129h1.942a6.306,6.306,0,0,0,1.554-.129h0c.259,0,.518-.13.777-.13h.259a3.782,3.782,0,0,0,1.165-.259c.129,0,.259,0,.259-.13.259-.129.518-.129.777-.259.129,0,.259-.129.388-.129.13-.129.389-.129.518-.259h.13c.388-.13.647-.388,1.036-.518.13,0,.13-.13.259-.13a11.386,11.386,0,0,1,1.295-.777h.13c.259-.259.647-.518.906-.777l.259-.259.518-.518.388-.388a8.379,8.379,0,0,0,1.036-1.165h0a.127.127,0,0,1,.129-.13c.259-.388.647-.777.906-1.165l.129-.129a.476.476,0,0,0,.129-.388c.129-.259.388-.647.518-.906,0-.129.13-.129.13-.259s.129-.129.129-.259a4.6,4.6,0,0,0,.518-1.165c0-.13.13-.13.13-.259v-.129c0-.129.129-.388.129-.518.129-.259.129-.518.259-.777,0-.129.13-.388.13-.518s.13-.388.13-.518v-.259c.129-.388.129-.647.259-1.036a.476.476,0,0,1,.129-.388,5.806,5.806,0,0,0,.13-1.424v-.129c0-.518.129-.906.129-1.424v-6.992a6.3,6.3,0,0,0-.129-1.554c0-.518-.13-1.036-.13-1.554V91.529a4.4,4.4,0,0,1,.13-1.295v-.259a6.5,6.5,0,0,1,.259-1.554.476.476,0,0,1,.129-.388c.13-.388.13-.777.259-1.165,0-.259.129-.518.129-.777s.13-.388.13-.647c.129-.259.129-.518.259-.777,0-.129.129-.388.129-.518s.13-.259.13-.388a4.051,4.051,0,0,1,.647-1.295c.129-.129.129-.388.259-.518a4.543,4.543,0,0,1,.647-1.036.982.982,0,0,0,.259-.518c.259-.388.648-.906.906-1.295a.127.127,0,0,1,.129-.129c.388-.388.777-.906,1.165-1.295l1.036-1.036.259-.259a7.4,7.4,0,0,0,1.036-.906,7.858,7.858,0,0,1,1.295-.906c.129,0,.129-.129.259-.129a7.639,7.639,0,0,1,1.036-.518,2.188,2.188,0,0,1,.647-.259c.13,0,.259-.129.518-.129.259-.129.518-.129.777-.259.129,0,.259-.129.388-.129.259-.129.647-.129.906-.259h.259a3.585,3.585,0,0,1,1.165-.129c.518,0,1.036-.13,1.683-.13h2.072c.518,0,1.036.13,1.683.13h.388c.388.129.906.129,1.295.259h.259c.906.129,1.813.388,2.719.518s1.813.388,2.719.518h.388c.389.129.906.129,1.295.259h.388a6.305,6.305,0,0,0,1.554.129h1.942a6.305,6.305,0,0,0,1.554-.129h0c.259,0,.518-.13.777-.13h.259a3.781,3.781,0,0,0,1.165-.259.452.452,0,0,0,.259-.129c.259-.129.518-.129.777-.259.13,0,.259-.129.388-.129.13-.129.388-.129.518-.259h.13c.388-.129.647-.388,1.036-.518.13,0,.13-.129.259-.129a11.382,11.382,0,0,1,1.295-.777h.13c.259-.259.647-.518.906-.777l.259-.259C399.058,71.07,399.188,70.811,399.447,70.681Z" transform="translate(-215.699 -53.2)" fill="url(#linear-gradient)"/>
  <g id="Group_20754" data-name="Group 20754" transform="translate(37.682 17.093)">
    <path id="Path_1110" data-name="Path 1110" d="M391.9,67.306c-6.345,6.733-13.208,5.309-19.812,4.014s-12.949-2.59-18.776,3.626-5.439,13.467-4.921,21.236,1.036,15.8-5.309,22.531-13.208,5.309-19.812,4.014-12.949-2.59-18.776,3.626-5.439,13.467-4.921,21.236,1.036,15.8-5.309,22.531-13.208,5.309-19.812,4.014-12.949-2.59-18.776,3.626-5.439,13.467-4.921,21.236,1.036,15.8-5.309,22.531l-.647-.906c5.827-6.216,5.439-13.467,4.921-21.236s-1.036-15.8,5.309-22.531,13.208-5.309,19.812-4.014,12.949,2.59,18.776-3.626,5.439-13.467,4.921-21.236-1.036-15.8,5.309-22.531,13.208-5.309,19.812-4.014,12.949,2.59,18.776-3.626,5.439-13.467,4.921-21.236-1.036-15.8,5.309-22.531,13.208-5.309,19.812-4.014,12.949,2.59,18.776-3.626Z" transform="translate(-244.8 -66.4)" fill="url(#linear-gradient-2)"/>
  </g>
</svg>
